PathFileType	4	(X/Y/Z)	RBDS002\RBDS002runT25.trc
DataRate	CameraRate	NumFrames	NumMarkers	Units	OrigDataRate	OrigDataStartFrame	OrigNumFrames
150.000000	150.000000	4	33	mm	150.000000	2250	4500
Frame#	Time	L.ASIS			L.Heel.Bottom			L.Heel.Lateral			L.Heel.Top			L.Iliac.Crest			L.MT1			L.MT5			L.PSIS			L.Shank.Bottom.Lateral			L.Shank.Bottom.Medial			L.Shank.Top.Lateral			L.Shank.Top.Medial			L.Thigh.Bottom.Lateral			L.Thigh.Bottom.Medial			L.Thigh.Top.Lateral			L.Thigh.Top.Medial			R.ASIS			R.ASY			R.Heel.Bottom			R.Heel.Lateral			R.Heel.Top			R.Iliac.Crest			R.MT1			R.MT5			R.PSIS			R.Shank.Bottom.Lateral			R.Shank.Bottom.Medial			R.Shank.Top.Lateral			R.Shank.Top.Medial			R.Thigh.Bottom.Lateral			R.Thigh.Bottom.Medial			R.Thigh.Top.Lateral			R.Thigh.Top.Medial			
		X1	Y1	Z1	X2	Y2	Z2	X3	Y3	Z3	X4	Y4	Z4	X5	Y5	Z5	X6	Y6	Z6	X7	Y7	Z7	X8	Y8	Z8	X9	Y9	Z9	X10	Y10	Z10	X11	Y11	Z11	X12	Y12	Z12	X13	Y13	Z13	X14	Y14	Z14	X15	Y15	Z15	X16	Y16	Z16	X17	Y17	Z17	X18	Y18	Z18	X19	Y19	Z19	X20	Y20	Z20	X21	Y21	Z21	X22	Y22	Z22	X23	Y23	Z23	X24	Y24	Z24	X25	Y25	Z25	X26	Y26	Z26	X27	Y27	Z27	X28	Y28	Z28	X29	Y29	Z29	X30	Y30	Z30	X31	Y31	Z31	X32	Y32	Z32	X33	Y33	Z33	

2251	15	2279.122781037291	1068.353162816032	913.8179974004514	2390.63241525007	47.00981895340388	989.6896147281143	2419.538875435296	62.4949930228703	942.7659121756902	2383.181486462634	96.64832173905162	979.9753272502932	2180.296563295252	1155.976302085762	865.1130118000631	2595.516832071488	149.4403002343357	1033.423732437889	2579.382434139419	109.4718742347825	924.4889232214821	2092.225483168895	1098.912357716852	970.4868635930063	2415.780191231107	204.9630603818494	920.3989587060785	2376.529103486654	200.6192318857197	953.4512540315678	2392.989074770879	278.832149541956	897.4499581763229	2352.016099888981	278.9190878605384	931.9912438728924	2328.979150227176	644.2255539147322	865.1905258888797	2277.685272527467	620.6251335523808	910.7774146368167	2271.18895352337	736.5438067990391	847.8273016488494	2222.955229477898	715.7479128079041	891.2838598078069	2272.302996793906	1046.864233597405	1130.513696848185	1792.504674562324	139.3265063173676	1082.164544576471	1657.066410684609	283.5804148305143	1074.34640447769	1675.859439430348	265.105696407806	1114.303541922869	1706.918943829751	294.4665793191418	1080.563334752465	2208.290455949267	1138.316198027379	1174.2021025812	1772.869754913066	86.60987882385771	1029.804079795213	1740.436812713649	100.9916308304884	1137.923932264893	2092.948965309779	1095.353467830838	1060.176719550615	1788.511023857326	308.3890555311305	1139.600855795041	1763.82683038344	336.2488629166791	1099.405120809151	1833.835851199041	374.264179512271	1154.71526054559	1810.077196956056	400.1109748387455	1113.761510142799	2059.167683445881	660.2839143675575	1164.774403676258	2020.004468235835	677.8148200984792	1103.88192837632	2076.252690577723	768.5678663776667	1181.622990367053	2040.625950286456	784.2059352479096	1123.145043639579	
2252	15.00666666666667	2279.996585540585	1067.850595410905	914.3958635423678	2389.878643837304	45.66196363966492	990.7407892783397	2419.340666013157	60.65464841178527	943.9615009110564	2382.385443441016	95.19797019544258	980.3183077800992	2181.280504525046	1154.446078843889	864.7761600375956	2594.054188236198	149.1474612786739	1035.833990485468	2579.328750829812	107.6751230144285	927.2467687489011	2092.786521843607	1098.153890586421	970.1663264826807	2415.248875480577	203.8838510470337	920.9477354076588	2375.826349721718	199.5357063505627	953.772960600748	2392.677814001076	277.7822029191769	897.9313578461976	2351.526111940427	277.8324456395288	932.256391209458	2329.330123396563	643.3022965326901	865.4481333535571	2277.928318157355	619.8512943565079	911.047339833307	2271.668934197115	735.8104261511386	848.1095045726346	2223.400821257644	715.1246991603301	891.5887485578103	2272.335720827858	1046.539854235433	1131.129760333944	1786.580674420624	144.3392109463707	1084.564036545055	1655.755456572906	292.6132293647279	1074.981606871962	1673.697019074226	273.9124935248404	1115.194452339619	1705.892693530832	301.9609159090456	1081.422748892072	2206.946714430922	1137.877990516178	1174.594198715167	1765.763286709562	91.1599215656431	1032.899399882938	1733.127392821444	107.2894871549441	1140.269624083671	2093.165471062403	1094.586314385404	1059.860376153161	1787.117202707482	313.0999682247622	1140.882612510759	1763.077669363872	341.5986296420267	1100.764983244502	1834.197088347135	377.7688205158556	1155.87328840381	1810.974268387936	404.2496147639984	1115.027165271579	2063.095262359757	657.7877024765805	1164.666229459059	2023.990659481844	674.8323293842277	1103.625483563399	2079.207821898192	766.2238676227944	1181.358117826955	2043.592927013673	781.3582751483621	1122.793024646716	
2253	15.01333333333333	2280.852508502107	1066.9528620271	914.9185169039743	2387.029372575678	43.94598833208313	991.89669773285	2416.861933484586	58.32859951494635	945.1357466676703	2379.742705458043	93.41261106014549	980.8440192475033	2182.330748862209	1152.345435946685	864.4304479611426	2591.142019557665	147.3171551809152	1037.351279826566	2577.028577145665	104.5613076182429	929.2423423992057	2093.311523852444	1096.798714218351	969.8265948467657	2413.258510253785	202.1448485885947	921.4019929222558	2373.674124618152	197.9290266152648	954.0385196036061	2391.17809407471	276.1832561033779	898.3660123522943	2349.891785935466	276.3439630075651	932.5295650482504	2329.67328347295	641.8973635186727	865.9673149008803	2278.113109684908	618.591449634901	911.5347201721448	2272.072256744512	734.5782680166486	848.6331218018445	2223.784353468998	713.9849746868368	892.140357087519	2272.338495434993	1045.805906001488	1131.777881839498	1781.49039734264	149.5315499360913	1087.210994715621	1654.816887746334	301.0668894498648	1075.007388460882	1671.871862399308	282.3795133928674	1115.582273403766	1705.144656998621	309.1054718017468	1081.771522580733	2205.458693351442	1136.933241056387	1174.950789799807	1759.804269824661	95.78864330907174	1036.295481146241	1726.742539687937	113.9091727149512	1142.814216199507	2093.357702162055	1093.261386580529	1059.514774290061	1786.271692424747	317.7178478230105	1141.982773962985	1762.9652003499	346.884405220577	1101.922336615822	1835.139310443984	381.0672316301326	1156.916321050088	1812.558742337934	408.2088701314566	1116.142518368504	2067.784412892329	654.4578049840987	1164.702484381088	2028.575409169154	670.9612831299017	1103.616232396792	2082.729439714799	763.0416233648144	1181.270989472603	2046.894870299779	777.6409685341442	1122.747910868925	
2254	15.02	2281.709248749997	1065.656642288032	915.3690380543165	2382.204535217553	41.96001159562724	993.1336366573951	2412.241658230699	55.62237000126689	946.2802434258743	2375.402226424967	91.3879975890268	981.5631266761045	2183.394784984012	1149.754032830041	864.113000979703	2586.901833378675	143.9276785528873	1038.109582307657	2572.646605015903	100.1869492848975	930.5424192969577	2093.830069715302	1094.830594362581	969.4967005566322	2409.930084255156	199.708517863129	921.7913251285514	2370.187194359651	195.7540555471471	954.2698278149303	2388.576010284859	273.9762213157998	898.7618394329023	2347.187582726444	274.3912096142592	932.805329593525	2329.903294160972	639.9485273610371	866.705449083017	2278.155056864225	616.8156618994582	912.2345560513538	2272.33891735265	732.8022639781544	849.3657450648218	2224.051900278667	712.3127168027765	892.9310303494294	2272.357061186854	1044.652683781513	1132.439177735692	1777.30046805754	154.8635353983671	1090.090605802605	1654.22770402083	308.8873186013882	1074.50147784115	1670.405589050725	290.4474166745781	1115.524903239717	1704.669523231065	315.8676283385816	1081.657501995885	2203.906665669308	1135.5089039892	1175.23969730104	1755.055559218264	100.4482753579624	1039.972719598742	1721.389947380055	120.7831072988931	1145.570508040364	2093.56410163975	1091.362598152977	1059.163042315034	1785.980454762763	322.2394874502263	1142.910634558202	1763.492114179971	352.0715108374844	1102.869435122712	1836.637361396728	384.1781395735763	1157.833229194086	1814.801843818437	411.9738160000016	1117.081982314868	2073.132214032484	650.3703577114519	1164.889282506836	2033.697409774823	666.2972896485838	1103.833411414818	2086.73443223405	759.089722323469	1181.386333132414	2050.499316769788	773.1400633825152	1123.002884085176	
